:FULLY-SPECIFIED
:FORCE-ALL-JOINTS-BE-3DOF
:DEGREES
374
root 6.19631 16.5033 -15.8932 9.3891 -17.1054 -6.15476
lfemur -45.6241 22.7651 -13.1642
ltibia 68.1863 0 0
lfoot -10.638 -1.65284 0
ltoes 13.6753 0 0
rfemur -24.5975 -3.53194 31.2793
rtibia 41.8137 0 0
rfoot -21.4584 0.650032 0
rtoes 17.801 0 0
lowerback 5.26413 1.58513 3.45084
upperback 2.63131 2.26144 1.03134
thorax -0.145881 1.14906 -0.990185
lowerneck -7.87877 -1.26515 2.94
upperneck -0.647998 -1.99826 2.12824
head 1.10708 -0.963979 0.102326
lclavicle 4.37906e-14 4.40639e-15 0
lhumerus -40.2379 -23.1279 94.9081
lradius 56.4159 0 0
lwrist 19.1238 0 0
lhand -21.4647 2.77449 0
lfingers 7.12502 0 0
lthumb 4.92568 32.697 0
rclavicle 4.37906e-14 4.40639e-15 0
rhumerus -37.4688 12.8166 -93.4993
rradius 60.9521 0 0
rwrist 9.45073 0 0
rhand -9.183 -19.3051 0
rfingers 7.12502 0 0
rthumb 16.7702 -768.599 0
375
root 6.14829 16.5112 -15.7547 9.41992 -17.8596 -6.28923
lfemur -45.7475 22.2348 -13.3193
ltibia 65.0469 0 0
lfoot -10.1284 -0.750813 0
ltoes 13.6152 0 0
rfemur -23.6643 -2.91829 31.3027
rtibia 41.3406 0 0
rfoot -21.6903 0.643772 0
rtoes 17.861 0 0
lowerback 5.20993 1.75661 3.54407
upperback 2.59991 2.49141 0.965961
thorax -0.129122 1.265 -1.11824
lowerneck -7.77661 -1.18953 3.08942
upperneck -0.546636 -1.90766 2.0722
head 1.12055 -0.918308 0.0631926
lclavicle 3.65433e-14 2.65046e-15 0
lhumerus -40.142 -23.0347 94.5902
lradius 56.093 0 0
lwrist 18.7671 0 0
lhand -21.611 2.6223 0
lfingers 7.12502 0 0
lthumb 4.78441 32.5479 0
rclavicle 3.65433e-14 2.65046e-15 0
rhumerus -37.6133 13.1092 -93.616
rradius 60.348 0 0
rwrist 9.61367 0 0
rhand -9.57912 -19.1438 0
rfingers 7.12502 0 0
rthumb 16.3887 -768.468 0
376
root 6.10027 16.5191 -15.6162 9.45073 -18.6138 -6.4237
lfemur -45.871 21.7046 -13.4743
ltibia 61.9074 0 0
lfoot -9.61875 0.15121 0
ltoes 13.5552 0 0
rfemur -22.7311 -2.30465 31.3261
rtibia 40.8676 0 0
rfoot -21.9222 0.637512 0
rtoes 17.9211 0 0
lowerback 5.15574 1.92808 3.63731
upperback 2.56852 2.72138 0.900581
thorax -0.112364 1.38094 -1.24629
lowerneck -7.67445 -1.1139 3.23884
upperneck -0.445273 -1.81705 2.01616
head 1.13402 -0.872637 0.0240595
lclavicle 2.92959e-14 8.9453e-16 0
lhumerus -40.0461 -22.9415 94.2724
lradius 55.77 0 0
lwrist 18.4104 0 0
lhand -21.7573 2.47011 0
lfingers 7.12502 0 0
lthumb 4.64315 32.3988 0
rclavicle 2.92959e-14 8.9453e-16 0
rhumerus -37.7578 13.4017 -93.7328
rradius 59.744 0 0
rwrist 9.7766 0 0
rhand -9.97524 -18.9826 0
rfingers 7.12502 0 0
rthumb 16.0072 -768.338 0
377
root 6.05225 16.5271 -15.4777 9.48155 -19.3681 -6.55816
lfemur -45.9945 21.1743 -13.6293
ltibia 58.768 0 0
lfoot -9.10913 1.05323 0
ltoes 13.4951 0 0
rfemur -21.798 -1.691 31.3494
rtibia 40.3946 0 0
rfoot -22.1542 0.631253 0
rtoes 17.9811 0 0
lowerback 5.10155 2.09955 3.73055
upperback 2.53712 2.95136 0.835201
thorax -0.0956053 1.49687 -1.37435
lowerneck -7.57228 -1.03828 3.38826
upperneck -0.34391 -1.72645 1.96011
head 1.1475 -0.826967 -0.0150737
lclavicle 2.20485e-14 -8.614e-16 0
lhumerus -39.9503 -22.8483 93.9545
lradius 55.447 0 0
lwrist 18.0536 0 0
lhand -21.9036 2.31791 0
lfingers 7.12502 0 0
lthumb 4.50189 32.2497 0
rclavicle 2.20485e-14 -8.614e-16 0
rhumerus -37.9023 13.6943 -93.8496
rradius 59.14 0 0
rwrist 9.93953 0 0
rhand -10.3714 -18.8214 0
rfingers 7.12502 0 0
rthumb 15.6258 -768.207 0
378
root 6.00423 16.535 -15.3392 9.51237 -20.1223 -6.69263
lfemur -46.1179 20.644 -13.7844
ltibia 55.6286 0 0
lfoot -8.59951 1.95526 0
ltoes 13.435 0 0
rfemur -20.8649 -1.07736 31.3728
rtibia 39.9215 0 0
rfoot -22.3861 0.624993 0
rtoes 18.0411 0 0
lowerback 5.04735 2.27103 3.82378
upperback 2.50572 3.18133 0.769822
thorax -0.0788469 1.61281 -1.5024
lowerneck -7.47012 -0.962659 3.53768
upperneck -0.242548 -1.63584 1.90407
head 1.16098 -0.781296 -0.0542069
lclavicle 1.48012e-14 -2.61733e-15 0
lhumerus -39.8544 -22.7551 93.6366
lradius 55.1241 0 0
lwrist 17.6969 0 0
lhand -22.0499 2.16572 0
lfingers 7.12502 0 0
lthumb 4.36062 32.1006 0
rclavicle 1.48012e-14 -2.61733e-15 0
rhumerus -38.0468 13.9869 -93.9663
rradius 58.5359 0 0
rwrist 10.1025 0 0
rhand -10.7675 -18.6601 0
rfingers 7.12502 0 0
rthumb 15.2443 -768.077 0
379
root 5.95621 16.5429 -15.2007 9.54319 -20.8765 -6.8271
lfemur -46.2414 20.1137 -13.9394
ltibia 52.4892 0 0
lfoot -8.08989 2.85728 0
ltoes 13.3749 0 0
rfemur -19.9317 -0.463717 31.3962
rtibia 39.4485 0 0
rfoot -22.618 0.618733 0
rtoes 18.1011 0 0
lowerback 4.99316 2.4425 3.91702
upperback 2.47433 3.41131 0.704442
thorax -0.0620885 1.72875 -1.63046
lowerneck -7.36796 -0.887037 3.6871
upperneck -0.141185 -1.54524 1.84803
head 1.17445 -0.735625 -0.0933401
lclavicle 7.55382e-15 -4.37326e-15 0
lhumerus -39.7586 -22.6619 93.3187
lradius 54.8011 0 0
lwrist 17.3402 0 0
lhand -22.1962 2.01352 0
lfingers 7.12502 0 0
lthumb 4.21936 31.9515 0
rclavicle 7.55382e-15 -4.37326e-15 0
rhumerus -38.1913 14.2795 -94.0831
rradius 57.9319 0 0
rwrist 10.2654 0 0
rhand -11.1636 -18.4989 0
rfingers 7.12502 0 0
rthumb 14.8629 -767.946 0
380
root 5.90524 16.5413 -15.0484 9.46697 -21.3607 -6.95029
lfemur -45.4157 18.4231 -13.105
ltibia 49.7781 0 0
lfoot -7.95735 4.50443 0
ltoes 13.6728 0 0
rfemur -18.9535 -0.367332 31.4556
rtibia 39.1333 0 0
rfoot -22.845 0.590505 0
rtoes 17.9657 0 0
lowerback 4.84653 2.52674 4.03197
upperback 2.42084 3.52221 0.660828
thorax -0.0176254 1.78576 -1.73634
lowerneck -7.23517 -0.838576 3.82659
upperneck -0.000530667 -1.48813 1.82031
head 1.19621 -0.7049 -0.123408
lclavicle 1.9895e-14 -4.63831e-15 0
lhumerus -39.949 -22.4947 93.1943
lradius 54.6621 0 0
lwrist 17.4703 0 0
lhand -21.5751 2.35677 0
lfingers 7.12502 0 0
lthumb 4.81896 32.2777 0
rclavicle 1.9895e-14 -4.63831e-15 0
rhumerus -38.5118 14.5005 -94.1959
rradius 57.6848 0 0
rwrist 10.3236 0 0
rhand -11.5318 -18.673 0
rfingers 7.12502 0 0
rthumb 14.5081 -768.144 0
